<?xml version="1.0" standalone="no"?>
<!DOCTYPE svg PUBLIC "-//W3C//DTD SVG 1.1//EN" "http://www.w3.org/Graphics/SVG/1.1/DTD/svg11.dtd" >
<svg xmlns="http://www.w3.org/2000/svg">
<metadata></metadata>
<defs>
<font id="ZurichBTBold" horiz-adv-x="1133" >
<font-face units-per-em="2048" ascent="1556" descent="-492" />
<missing-glyph horiz-adv-x="567" />
<glyph horiz-adv-x="0" />
<glyph horiz-adv-x="2048" />
<glyph unicode="&#xd;" horiz-adv-x="567" />
<glyph unicode=" "  horiz-adv-x="567" />
<glyph unicode="&#x09;" horiz-adv-x="567" />
<glyph unicode="&#xa0;" horiz-adv-x="567" />
<glyph unicode="!" horiz-adv-x="782" d="M256 1475h270l-30 -1072h-209zM262 0v270h258v-270h-258z" />
<glyph unicode="&#x22;" horiz-adv-x="678" d="M80 879v559h192v-559h-192zM406 879v559h192v-559h-192z" />
<glyph unicode="#" horiz-adv-x="1575" d="M45 406l76 200h282l86 242h-299l74 201h297l148 415h221l-146 -415h242l148 415h221l-148 -415h283l-74 -201h-280l-84 -242h290l-71 -200h-291l-148 -416h-221l148 416h-244l-149 -416h-220l146 416h-287zM621 604h251l86 244h-249z" />
<glyph unicode="$" d="M74 438v33h254v-8q0 -228 186 -264v422q-217 52 -312.5 145.5t-95.5 257t107 269.5t301 128v142h109v-138q187 -15 284 -116t97 -281v-6h-234q-8 95 -43 145.5t-104 67.5v-387q252 -70 344 -159t92 -263t-113 -287t-323 -139v-193h-109v188q-214 6 -327 120t-113 323z M350 1068q0 -132 164 -185v356q-77 -14 -120.5 -59.5t-43.5 -111.5zM623 199q168 39 168 194q0 132 -168 189v-383z" />
<glyph unicode="%" horiz-adv-x="2015" d="M176 1074.5q0 180.5 84 278t238.5 97.5t237.5 -93t83 -273.5t-85 -282t-240 -101.5t-236.5 97t-81.5 277.5zM379 1076.5q0 -226.5 117 -226.5q59 0 90.5 61t31.5 169.5t-31 165.5t-87 57q-121 0 -121 -226.5zM508 -25l833 1475h164l-833 -1475h-164zM1194 349.5 q0 180.5 84 278t238.5 97.5t238.5 -93.5t84 -273.5t-86 -281.5t-241 -101.5t-236.5 97t-81.5 277.5zM1397 350q0 -109 30 -167t88 -58t89.5 61t31.5 169.5t-31 165.5t-87 57q-121 0 -121 -228z" />
<glyph unicode="&#x26;" horiz-adv-x="1327" d="M86 387q0 154 75 250t210 115q-111 27 -172.5 114.5t-61.5 216.5q0 188 119.5 291t337.5 103h188v-220h-153q-187 0 -187 -186q0 -107 45.5 -157t141.5 -50h176v193h299v-193h182v-213h-182v-651h-508q-175 0 -244.5 15t-130 59.5t-98 126.5t-37.5 186zM406 432.5 q0 -117.5 49 -166.5t174 -49h176v434h-170q-124 0 -176.5 -50.5t-52.5 -168z" />
<glyph unicode="'" horiz-adv-x="352" d="M80 879v559h192v-559h-192z" />
<glyph unicode="(" horiz-adv-x="678" d="M121 579q0 360 207 918h227q-180 -542 -180 -925t160 -879h-230q-184 526 -184 886z" />
<glyph unicode=")" horiz-adv-x="678" d="M121 1497h229q207 -558 207 -914t-186 -890h-228q158 488 158 875t-180 929z" />
<glyph unicode="*" horiz-adv-x="1100" d="M133 981v213l305 -47l-184 248l182 100l117 -276l119 278l186 -115l-196 -237l307 39v-215l-299 43l184 -242l-184 -102l-117 278l-115 -278l-188 104l186 248z" />
<glyph unicode="+" horiz-adv-x="1706" d="M254 512v199h498v510h202v-510h498v-199h-498v-512h-202v512h-498z" />
<glyph unicode="," horiz-adv-x="567" d="M63 -236l148 510h291l-226 -510h-213z" />
<glyph unicode="-" horiz-adv-x="713" d="M92 391v271h529v-271h-529z" />
<glyph unicode="." horiz-adv-x="567" d="M154 0v270h258v-270h-258z" />
<glyph unicode="/" horiz-adv-x="899" d="M43 -125l612 1622h158l-610 -1622h-160z" />
<glyph unicode="0" d="M70 715.5q0 363.5 125.5 549t371.5 185.5t372 -186.5t126 -548.5t-126.5 -550t-371.5 -188t-371 187.5t-126 551zM375 714q0 -521 192.5 -521t192.5 521t-193 521q-192 0 -192 -521z" />
<glyph unicode="1" d="M205 928v286q209 90 352 213h277v-1427h-304v1106q-188 -130 -325 -178z" />
<glyph unicode="2" d="M74 0v299l84 76q604 540 604 702q0 73 -47.5 120.5t-120.5 47.5q-185 0 -193 -217h-272v16q0 187 124 296.5t336 109.5t338 -103.5t126 -270.5t-134.5 -343.5t-517.5 -490.5h660v-242h-987z" />
<glyph unicode="3" d="M84 1047q2 193 123 298t339 105t344 -111.5t126 -300.5q0 -248 -244 -315q254 -63 254 -320q0 -188 -138 -308t-350 -120t-330 101t-118 274v29h268q2 -89 51.5 -141t137.5 -52t141 57.5t53 160t-60 147.5t-216 45h-107v238h111q152 0 212 44.5t60 147t-52.5 159 t-140.5 56.5t-139 -53t-53 -141h-272z" />
<glyph unicode="4" d="M43 309v287l559 831h309v-882h179v-236h-179v-309h-286v309h-582zM264 545h361v549z" />
<glyph unicode="5" d="M78 354v4h309q2 -72 43.5 -112.5t125.5 -40.5t141 75t57 196t-52 190t-135 69q-134 0 -184 -147h-301l33 839h854v-231h-584l-20 -348q111 98 262 98q190 0 310 -125t120 -340.5t-147.5 -360.5t-368 -145t-342 103.5t-121.5 275.5z" />
<glyph unicode="6" d="M72 625q0 407 137 615t405 208q190 0 296 -96t108 -268h-262q-9 71 -50.5 112t-105.5 41q-203 0 -203 -397v-13q123 105 254 105q190 0 305 -123t115 -339.5t-135.5 -355.5t-357.5 -139q-506 0 -506 650zM393 458q0 -113 50.5 -181t134.5 -68t135 66.5t51 180.5 t-50.5 180t-136 66t-135 -65.5t-49.5 -178.5z" />
<glyph unicode="7" d="M63 1184v243h953v-272l-477 -1155h-340l524 1184h-660z" />
<glyph unicode="8" d="M70 410q0 120 62.5 201.5t203.5 142.5q-252 58 -252 305q0 187 126 290t358 103t356.5 -102t124.5 -291q0 -238 -252 -305q140 -54 203 -138t63 -217q0 -180 -141.5 -302t-355.5 -122t-355 123t-141 312zM362 415q0 -87 60 -148.5t146.5 -61.5t145 60.5t58.5 150.5 t-60.5 151.5t-145.5 61.5t-144.5 -63.5t-59.5 -150.5zM385 1047.5q0 -79.5 50 -131.5t131 -52t132.5 52t51.5 131.5t-53 130.5t-130.5 51t-129.5 -51t-52 -130.5z" />
<glyph unicode="9" d="M61 954.5q0 216.5 135.5 355t372.5 138.5t364.5 -163.5t127.5 -485.5q0 -407 -137.5 -615.5t-405.5 -208.5q-189 0 -295 96.5t-108 270.5h261q10 -72 51 -113t105 -41q203 0 203 398v12q-122 -104 -254 -104q-190 0 -305 122t-115 338.5zM369 968q0 -114 50 -179.5 t135.5 -65.5t135 65t49.5 177.5t-50.5 180.5t-134.5 68t-134.5 -66t-50.5 -180z" />
<glyph unicode=":" horiz-adv-x="782" d="M262 0v270h258v-270h-258zM262 758v270h258v-270h-258z" />
<glyph unicode=";" horiz-adv-x="782" d="M119 -236l145 508h287l-223 -508h-209zM262 760v270h258v-270h-258z" />
<glyph unicode="&#x3c;" horiz-adv-x="1706" d="M264 512v199l1178 483v-219l-893 -365l893 -364v-219z" />
<glyph unicode="=" horiz-adv-x="1706" d="M254 297v199h1198v-199h-1198zM254 727v199h1198v-199h-1198z" />
<glyph unicode="&#x3e;" horiz-adv-x="1706" d="M264 27v219l895 364l-895 365v219l1178 -483v-199z" />
<glyph unicode="?" horiz-adv-x="1014" d="M94 1247v215q169 35 312 35q245 0 378.5 -96.5t133.5 -274.5q0 -102 -48 -190q-57 -103 -226 -247q-124 -107 -124 -187v-168h-223v211q0 77 72 156q20 22 30 34q133 157 171 226.5t38 146.5t-63 133.5t-166 56.5t-285 -51zM287 0v250h239v-250h-239z" />
<glyph unicode="@" horiz-adv-x="2048" d="M90 520q0 342 207 594q300 367 819 367q345 0 576 -174q268 -208 268 -543q0 -165 -65.5 -304.5t-188.5 -238.5q-144 -115 -324 -115q-211 0 -215 166q-107 -163 -297 -163q-158 0 -240.5 86t-82.5 254q0 239 139.5 401t343.5 162q159 0 236 -131l53 98h178l-147 -598 q-7 -26 -7 -41q0 -70 95 -70q83 0 165 78q171 163 171 411.5t-185.5 403t-478.5 154.5q-284 0 -483 -135q-170 -114 -261.5 -285t-91.5 -375q0 -307 207 -490.5t545.5 -183.5t611.5 191l82 -117q-307 -231 -682 -231q-386 0 -639 192q-309 241 -309 637zM760 444 q0 -92 40.5 -140t120.5 -48t148.5 63t93.5 164l54 217q-27 166 -175 166q-114 0 -198 -124t-84 -298z" />
<glyph unicode="A" horiz-adv-x="1436" d="M6 0l535 1475h372l514 -1475h-321l-105 317h-583l-115 -317h-297zM498 559h426l-203 625z" />
<glyph unicode="B" horiz-adv-x="1354" d="M141 0v1475h506q293 0 427 -90.5t134 -286.5q0 -245 -241 -320q303 -81 303 -368q0 -178 -105 -283q-69 -69 -174.5 -98t-341.5 -29h-508zM442 236h207q193 0 252.5 44.5t59.5 162t-64 163t-248 45.5h-207v-415zM442 877h207q145 0 201.5 40.5t56.5 143t-55.5 145.5 t-202.5 43h-207v-372z" />
<glyph unicode="C" horiz-adv-x="1427" d="M86 730.5q0 371.5 175 570t501 198.5q266 0 421.5 -119.5t166.5 -330.5h-291q-5 106 -82 169.5t-203 63.5q-371 0 -371 -545q0 -278 92 -412.5t281 -134.5q122 0 199.5 69t85.5 183h297q-16 -228 -170 -347.5t-432 -119.5q-330 0 -500 192t-170 563.5z" />
<glyph unicode="D" horiz-adv-x="1477" d="M141 0v1475h461q185 0 297 -29t207 -94q276 -193 276 -617q0 -362 -197.5 -548.5t-582.5 -186.5h-461zM455 244h159q228 0 334.5 118t106.5 374t-106.5 376.5t-334.5 120.5h-159v-989z" />
<glyph unicode="E" horiz-adv-x="1229" d="M143 0v1475h979v-244h-659v-348h618v-240h-618v-397h682v-246h-1002z" />
<glyph unicode="F" horiz-adv-x="1126" d="M141 0v1475h944v-244h-628v-348h585v-240h-585v-643h-316z" />
<glyph unicode="G" horiz-adv-x="1577" d="M92 723q0 361 205 568.5t569 207.5q269 0 426.5 -123t157.5 -329v-27h-297q-6 136 -84 207t-221 71q-201 0 -317.5 -153t-116.5 -415.5t122.5 -396.5t360.5 -134q125 0 241 30l1 322h-281v235h588v-690q-242 -121 -572 -121q-374 0 -578 193.5t-204 554.5z" />
<glyph unicode="H" horiz-adv-x="1464" d="M141 0v1475h318v-590h557v590h307v-1475h-307v645h-557v-645h-318z" />
<glyph unicode="I" horiz-adv-x="596" d="M141 0v1475h314v-1475h-314z" />
<glyph unicode="J" horiz-adv-x="1126" d="M20 444v17h299v-29q0 -227 181 -227q96 0 133 61t37 260v949h313v-1000q0 -252 -116.5 -376t-356 -124t-365 119.5t-125.5 349.5z" />
<glyph unicode="K" horiz-adv-x="1346" d="M143 0v1475h314v-637l481 637h354l-518 -660l569 -815h-366l-520 764v-764h-314z" />
<glyph unicode="L" horiz-adv-x="1165" d="M143 0v1475h314v-1225h665v-250h-979z" />
<glyph unicode="M" horiz-adv-x="1909" d="M143 0v1475h498l309 -1065l307 1065h508v-1475h-292v1247l-386 -1247h-276l-385 1247v-1247h-283z" />
<glyph unicode="N" horiz-adv-x="1575" d="M141 0v1475h455l555 -1186v1186h283v-1475h-437l-573 1221v-1221h-283z" />
<glyph unicode="O" horiz-adv-x="1597" d="M94 738.5q0 355.5 189.5 557t515 201.5t514 -201.5t188.5 -556.5t-186 -559.5t-516.5 -204.5t-517.5 204t-187 559.5zM424 740q0 -266 95 -405.5t278.5 -139.5t278.5 139.5t95 406t-96 405t-277.5 138.5t-277.5 -139t-96 -405z" />
<glyph unicode="P" horiz-adv-x="1235" d="M141 0v1475h437q314 0 455 -106.5t141 -337.5q0 -462 -515 -462h-219v-569h-299zM440 817h150q148 0 210 48t62 158.5t-62.5 158t-209.5 47.5h-150v-412z" />
<glyph unicode="Q" horiz-adv-x="1597" d="M94 743q0 347 190 550.5t515 203.5t509.5 -193.5t184.5 -533.5q0 -175 -54 -317.5t-153 -227.5h262v-225h-407l-328 -20q-190 0 -318 51t-219 155q-182 210 -182 557zM426 746.5q0 -266.5 95.5 -407t279 -140.5t278.5 140t95 406.5t-96.5 405.5t-278 139t-277.5 -138.5 t-96 -405z" />
<glyph unicode="R" horiz-adv-x="1350" d="M141 0v1475h613q257 0 378 -90t121 -264t-68 -260t-218 -122q121 -13 176.5 -73.5t73.5 -204.5l26 -213q24 -175 76 -248h-342q-30 59 -41 180l-21 223q-12 135 -42.5 163t-149.5 28h-272v-594h-310zM451 834h186q175 0 240 45t65 160.5t-61.5 161.5t-243.5 46h-186v-413 z" />
<glyph unicode="S" horiz-adv-x="1348" d="M84 459v20h309q0 -295 291 -295q117 0 190.5 57.5t73.5 145.5q0 139 -347 257l-33 11q-11 4 -30 10q-194 64 -268 119q-141 105 -141 294.5t150.5 306t402 116.5t385 -113t133.5 -317v-8h-274q-10 115 -75.5 175t-178.5 60t-178.5 -51t-65.5 -137q0 -137 383 -258 q278 -92 365.5 -184t87.5 -254q0 -206 -157.5 -322.5t-438.5 -116.5q-584 0 -584 484z" />
<glyph unicode="T" horiz-adv-x="1235" d="M25 1235v240h1185v-240h-434v-1235h-317v1235h-434z" />
<glyph unicode="U" horiz-adv-x="1542" d="M139 567v908h314v-930q0 -326 329 -326q165 0 242.5 82.5t77.5 257.5v916h303v-908q0 -298 -156.5 -444t-478 -146t-476.5 144.5t-155 445.5z" />
<glyph unicode="V" horiz-adv-x="1462" d="M14 1475h342l389 -1153l379 1153h322l-543 -1475h-352z" />
<glyph unicode="W" horiz-adv-x="2030" d="M12 1475h346l213 -1147l293 1147h357l258 -1147l233 1147h305l-362 -1475h-359l-266 1130l-289 -1130h-352z" />
<glyph unicode="X" horiz-adv-x="1462" d="M31 0l506 762l-474 713h363l309 -510l324 510h330l-480 -707l506 -768h-366l-342 559l-351 -559h-325z" />
<glyph unicode="Y" horiz-adv-x="1350" d="M20 1475h332l338 -631l305 631h328l-489 -930v-545h-316v545z" />
<glyph unicode="Z" horiz-adv-x="1237" d="M53 0v283l766 960h-725v232h1059v-285l-758 -946h776v-244h-1118z" />
<glyph unicode="[" horiz-adv-x="678" d="M170 -309v1784h463v-181h-217v-1417h217v-186h-463z" />
<glyph unicode="\" horiz-adv-x="899" d="M43 1497h160l610 -1622h-158z" />
<glyph unicode="]" horiz-adv-x="678" d="M84 -123h217v1417h-217v181h463v-1784h-463v186z" />
<glyph unicode="^" horiz-adv-x="2048" d="M416 899l481 561h252l481 -561h-235l-371 371l-373 -371h-235z" />
<glyph unicode="_" horiz-adv-x="1024" d="M0 -279h1024v-204h-1024v204z" />
<glyph unicode="`" horiz-adv-x="1024" d="M219 1526h258l197 -369h-142z" />
<glyph unicode="a" horiz-adv-x="1128" d="M88 293q0 180 141.5 274.5t413.5 94.5l68 -3l2 43q0 95 -34.5 139t-105.5 44t-105 -35t-40 -111l-297 1q4 315 438 315q223 0 334 -109q51 -49 71.5 -112.5t20.5 -206.5v-314q0 -47 16 -313h-257q-9 36 -13 139q-130 -172 -325 -172q-145 0 -236.5 91t-91.5 235zM379 311 q0 -59 40.5 -97t117 -38t125.5 67.5t49 194.5q0 33 -2 55l-33 1q-144 0 -220.5 -47.5t-76.5 -135.5z" />
<glyph unicode="b" horiz-adv-x="1245" d="M125 0q10 86 10 170v1305h297v-588q109 160 303 160t308 -145.5t114 -387t-116 -388t-308 -146.5t-305 167l-10 -147h-293zM426 512.5q0 -154.5 59.5 -244.5t159 -90t154.5 87.5t55 246.5t-55 247.5t-154.5 88.5t-159 -90.5t-59.5 -245z" />
<glyph unicode="c" horiz-adv-x="1020" d="M80 522.5q0 250.5 128 390.5t353 140q182 0 289 -100.5t110 -274.5h-282q-10 98 -42.5 141t-96.5 43q-150 0 -150 -327q0 -188 36.5 -268.5t119.5 -80.5q123 0 133 203h283q0 -196 -110.5 -305t-316.5 -109t-330 148.5t-124 399z" />
<glyph unicode="d" horiz-adv-x="1245" d="M88 514.5q0 241.5 114 387t308 145.5t303 -160v588h297v-1268q0 -143 10 -207h-293l-10 147q-111 -167 -303.5 -167t-309 146.5t-116.5 388zM391 512q0 -159 55 -246.5t155 -87.5t159 89.5t59 245t-59 245.5t-159 90t-155 -88.5t-55 -247.5z" />
<glyph unicode="e" horiz-adv-x="1120" d="M86 510.5q0 255.5 129 399t356.5 143.5t347 -139.5t119.5 -395.5q0 -45 -2 -67l-663 -1q4 -274 190 -274q144 0 178 146h265q-13 -163 -129.5 -254t-327.5 -91t-337 139t-126 394.5zM381 641h352q-4 223 -174 223q-77 0 -124.5 -59t-53.5 -164z" />
<glyph unicode="f" horiz-adv-x="670" d="M2 823v205h156v199q0 274 313 274q54 0 180 -14v-207q-38 6 -69 6q-131 0 -131 -121v-137h182v-205h-182v-823h-293v823h-156z" />
<glyph unicode="g" horiz-adv-x="1223" d="M90 535.5q0 231.5 112 372.5t298 141t295 -160l10 139h291q-9 -70 -9 -164v-803q0 -246 -120.5 -356.5t-364 -110.5t-359.5 86.5t-116 247.5h285q6 -65 49 -101t114 -36q117 0 165 58t48 200v121q-108 -145 -292.5 -145t-295 139.5t-110.5 371zM383 538 q0 -143 53.5 -222.5t150 -79.5t153.5 80.5t57 220.5t-57 221.5t-153.5 81.5t-150 -79.5t-53.5 -222.5z" />
<glyph unicode="h" horiz-adv-x="1221" d="M137 0v1475h297v-580q111 158 318 158q170 0 252.5 -96.5t82.5 -294.5v-662h-296v621q0 115 -39.5 165t-127 50t-139 -55.5t-51.5 -147.5v-633h-297z" />
<glyph unicode="i" horiz-adv-x="567" d="M135 0v1028h299v-1028h-299zM135 1214v261h299v-261h-299z" />
<glyph unicode="j" horiz-adv-x="567" d="M4 -193q77 4 104 36t27 145v1040h299v-1073q0 -205 -75 -281.5t-263 -76.5q-44 0 -92 4v206zM135 1214v261h299v-261h-299z" />
<glyph unicode="k" horiz-adv-x="1120" d="M135 0v1475h295v-850l305 403h342l-352 -436l377 -592h-359l-313 547v-547h-295z" />
<glyph unicode="l" horiz-adv-x="567" d="M135 0v1475h297v-1475h-297z" />
<glyph unicode="m" horiz-adv-x="1868" d="M129 1028h283l8 -154q58 93 137.5 136t194.5 43q237 0 313 -201q50 104 131 152.5t205 48.5q170 0 253 -96.5t83 -294.5v-662h-297v621q0 115 -39.5 165t-127 50t-139 -55.5t-51.5 -147.5v-633h-297v621q0 114 -39 164.5t-125.5 50.5t-137 -55t-50.5 -148v-633h-297v831 q0 107 -8 197z" />
<glyph unicode="n" horiz-adv-x="1221" d="M129 1028h285l6 -154q58 93 137.5 136t194.5 43q170 0 252.5 -96.5t82.5 -294.5v-662h-294v621q0 115 -39.5 165t-127 50t-140 -55.5t-52.5 -147.5v-633h-295v831q0 83 -10 197z" />
<glyph unicode="o" horiz-adv-x="1235" d="M86 514q0 244 145 391.5t386 147.5t386.5 -147t145.5 -392t-145.5 -392t-386.5 -147t-386 147.5t-145 391.5zM389 516.5q0 -167.5 58 -254t169.5 -86.5t169.5 86.5t58 253.5q0 340 -228 340q-111 0 -169 -86t-58 -253.5z" />
<glyph unicode="p" horiz-adv-x="1245" d="M125 1028h293l10 -147q113 168 305 168t308 -147t116 -388.5t-114 -386.5t-308.5 -145t-302.5 159v-530h-297v1208q0 123 -10 209zM426 516q0 -156 59 -246t159 -90t155 88.5t55 248t-55 247.5t-155 88t-159 -90t-59 -246z" />
<glyph unicode="q" horiz-adv-x="1245" d="M88 513.5q0 241.5 116.5 388.5t309 147t303.5 -168l10 147h293q-10 -78 -10 -186v-1231h-297v530q-108 -159 -302.5 -159t-308.5 145t-114 386.5zM391 516.5q0 -159.5 55 -248t155 -88.5t159 90t59 246t-59 246t-159 90t-155 -88t-55 -247.5z" />
<glyph unicode="r" horiz-adv-x="788" d="M121 1028h274l11 -184q79 192 337 192h9l-1 -270l-41 3q-13 1 -24 1q-117 0 -183.5 -57t-66.5 -158v-555h-303v709q0 175 -12 319z" />
<glyph unicode="s" horiz-adv-x="1012" d="M60 309h278q3 -69 43 -102t117.5 -33t118 31t40.5 86q0 84 -190 132q-47 12 -73 19q-170 46 -242 114.5t-72 194.5t120 214t306 88t288.5 -77.5t102.5 -209.5v-8h-262q-16 119 -143 119q-65 0 -104.5 -29t-39.5 -76q0 -72 198 -118q46 -11 70 -17q175 -43 250.5 -114 t75.5 -189q0 -154 -126.5 -256.5t-327 -102.5t-313 86.5t-115.5 247.5z" />
<glyph unicode="t" horiz-adv-x="788" d="M6 825v203h195v199l297 110v-309h237v-203h-239v-501q0 -117 112 -117q57 0 125 14v-211q-136 -30 -269.5 -30t-198 68.5t-64.5 219.5v557h-195z" />
<glyph unicode="u" horiz-adv-x="1221" d="M135 367v661h297v-618q0 -116 39.5 -165.5t127 -49.5t138.5 54t51 146v633h297v-829q0 -98 9 -199h-283l-8 154q-58 -93 -137.5 -136t-194.5 -43q-171 0 -253.5 96.5t-82.5 295.5z" />
<glyph unicode="v" horiz-adv-x="1130" d="M14 1028h310l239 -700l244 700h283l-367 -1028h-334z" />
<glyph unicode="w" horiz-adv-x="1796" d="M10 1028h320l186 -756l221 756h328l211 -749l209 749h293l-351 -1028h-327l-211 756l-215 -756h-330z" />
<glyph unicode="x" horiz-adv-x="1122" d="M16 0l340 555l-309 473h334l197 -323l186 323h311l-319 -496l346 -532h-346l-219 377l-205 -377h-316z" />
<glyph unicode="y" horiz-adv-x="1126" d="M23 1028h329l223 -672l226 672h299l-393 -1028l-119 -389h-303l127 389z" />
<glyph unicode="z" horiz-adv-x="1010" d="M76 0v268l522 570h-508v190h823v-254l-514 -567h535v-207h-858z" />
<glyph unicode="{" horiz-adv-x="1024" d="M158 426v209l41 -2q120 0 171.5 58t51.5 196v250q0 143 23.5 201t75.5 88q94 53 286 53l76 -2v-209l-47 2q-101 0 -136.5 -38.5t-35.5 -162.5v-240q0 -148 -45 -210t-162 -89q117 -27 162 -88t45 -209v-241q0 -123 35 -161t137 -38l47 2v-209l-76 -2q-189 0 -281 49 q-57 34 -80.5 91.5t-23.5 199.5v252q0 137 -51 194.5t-172 57.5z" />
<glyph unicode="|" horiz-adv-x="1024" d="M410 -483v2048h206v-2048h-206z" />
<glyph unicode="}" horiz-adv-x="1024" d="M143 -205l47 -2q101 0 136.5 38.5t35.5 160.5v239q0 150 45 211.5t162 87.5q-117 27 -162 89t-45 210v242q0 122 -35.5 160.5t-136.5 38.5l-47 -2v209h68q202 0 289 -50q57 -32 80.5 -91.5t23.5 -198.5v-252q0 -137 51 -194.5t172 -57.5l41 2v-209h-37q-125 0 -176 -56 t-51 -194v-252q0 -143 -23.5 -201t-75.5 -87q-96 -52 -286 -52l-76 2v209z" />
<glyph unicode="~" horiz-adv-x="1706" d="M178 418v221q213 143 387 143q117 0 291 -58q7 -2 59 -20q155 -55 240 -55q163 0 375 154v-221q-202 -138 -379 -138q-89 0 -148.5 19.5t-106.5 36.5q-219 75 -333 75q-165 0 -385 -157z" />
<glyph unicode="&#xa0;" />
<glyph unicode="&#xa1;" horiz-adv-x="782" d="M256 0l31 1071h209l30 -1071h-270zM262 1202v273h258v-273h-258z" />
<glyph unicode="&#xa2;" d="M125 535q0 249 121 395.5t323 146.5q44 0 94 -10l64 252l104 -25l-63 -245q228 -69 238 -346l-265 -1q-8 68 -41 103l-141 -587q13 -5 39 -5q115 0 127 201h283v-4q0 -187 -108.5 -298.5t-289.5 -111.5q-44 0 -100 14l-68 -272l-104 27l68 268q-132 50 -206.5 181.5 t-74.5 316.5zM418 567q0 -133 11 -195t38 -102l149 615q-32 10 -51 10q-147 0 -147 -328z" />
<glyph unicode="&#xa3;" d="M70 668v211h170v231q0 162 112.5 251t309 89t297 -86t100.5 -246v-26h-260q0 165 -127 165q-70 0 -100.5 -38t-30.5 -127v-213h329v-211h-329v-432h514v-236h-963v236h148v432h-170z" />
<glyph unicode="&#xa4;" d="M-51 813l61 141h129q26 267 156 406t340 139t332 -116t130 -310h-296q0 101 -41.5 156t-125.5 55q-173 0 -191 -330h366l-64 -141h-311v-20l-2 -58l2 -59v-14h244l-64 -142h-171q6 -332 192 -332q81 0 124.5 64t43.5 182v8h301q-10 -224 -128.5 -345.5t-328.5 -121.5 q-450 0 -508 545h-164l64 142h90v151h-180z" />
<glyph unicode="&#xa5;" horiz-adv-x="1356" d="M33 1425h303l360 -639l322 639h305l-238 -436h228v-115h-289l-102 -188h391v-115h-455l-24 -45v-526h-306v526l-24 45h-461v115h397l-104 188h-293v115h229z" />
<glyph unicode="&#xa6;" horiz-adv-x="1024" d="M410 -350v758h206v-758h-206zM410 674v758h206v-758h-206z" />
<glyph unicode="&#xa7;" horiz-adv-x="1100" d="M162 739q0 83 47 150t133 106q-74 37 -114 98t-40 136q0 122 105 197t291.5 75t308.5 -63v-221q-181 79 -274.5 79t-143 -30.5t-49.5 -79.5q0 -46 38.5 -71.5t124.5 -49.5t122 -39q227 -92 227 -291q0 -83 -47 -149.5t-133 -106.5q153 -77 153 -233q0 -123 -104.5 -198 t-290 -75t-309.5 62v223q197 -80 282.5 -80t135 31t49.5 80q0 45 -38.5 70.5t-124 50t-120.5 39.5q-229 92 -229 290zM393 725q0 -54 47 -96.5t138 -65.5q58 30 93.5 80.5t35.5 105.5q0 114 -185 162q-57 -30 -93 -81t-36 -105z" />
<glyph unicode="&#xa8;" horiz-adv-x="1024" d="M225 1217v243h226v-243h-226zM573 1217v243h226v-243h-226z" />
<glyph unicode="&#xa9;" horiz-adv-x="1706" d="M111 733q0 306 217 526t526 220t526 -217t217 -527.5t-215 -521.5q-111 -108 -248 -165.5t-283 -57.5q-300 0 -521 221q-219 217 -219 522zM233 735.5q0 -255.5 182.5 -438t438.5 -182.5t442 184q179 175 179 436q0 258 -181.5 439.5t-440.5 181.5t-439.5 -182.5 t-180.5 -438zM453 730q0 205 109.5 327.5t277.5 122.5t266.5 -78t105.5 -205h-188q-8 70 -53 108.5t-127.5 38.5t-134.5 -81.5t-52 -228t52 -223.5t138 -77q164 0 183 161l193 1q-8 -139 -109 -223t-273.5 -84t-280 118t-107.5 323z" />
<glyph unicode="&#xaa;" horiz-adv-x="846" d="M57 950q0 273 422 273h45v24q0 63 -23.5 91t-72.5 28t-71 -23.5t-27 -78.5h-242q4 235 340 235q175 0 251.5 -71.5t76.5 -235.5v-219q0 -46 12 -228h-211q-5 38 -8 86q-88 -108 -236 -108q-111 0 -183.5 64.5t-72.5 162.5zM109 471v123h608v-123h-608zM293 982 q0 -48 28 -72.5t81 -24.5t87.5 46t34.5 128l-2 33h-18q-102 0 -156.5 -31t-54.5 -79z" />
<glyph unicode="&#xab;" horiz-adv-x="1241" d="M109 522l221 387h272l-194 -387l190 -403h-266zM639 522l221 387h273l-195 -387l190 -403h-266z" />
<glyph unicode="&#xac;" horiz-adv-x="1706" d="M254 668v196h1198v-502h-199v306h-999z" />
<glyph unicode="&#xad;" horiz-adv-x="713" d="M92 391v271h529v-271h-529z" />
<glyph unicode="&#xae;" horiz-adv-x="1706" d="M111 733q0 203 104.5 380t270.5 271.5t343 94.5q337 0 557 -224q211 -213 211 -522q0 -315 -219 -526q-107 -105 -243.5 -161t-284 -56t-283.5 58t-241 165q-215 218 -215 520zM233 734q0 -254 179 -433q184 -188 440 -188q248 0 440 182q87 84 135 196t48 239 q0 260 -179 443t-438.5 183t-435.5 -176q-91 -91 -140 -206.5t-49 -239.5zM545 336v825h323q353 0 353 -237q0 -82 -48 -140t-133 -79l185 -369h-224l-157 338h-99v-338h-200zM745 795h99q88 0 129 28t41 88q0 123 -180 123h-89v-239z" />
<glyph unicode="&#xaf;" horiz-adv-x="1024" d="M225 1262v153h574v-153h-574z" />
<glyph unicode="&#xb0;" horiz-adv-x="674" d="M35 1159q0 127 88.5 216t214.5 89t214.5 -89.5t88.5 -215t-89 -214.5t-215.5 -89t-214 88t-87.5 215zM162 1160q0 -73 51 -124t124 -51t124 52t51 124t-51 123t-123.5 51t-124 -51t-51.5 -124z" />
<glyph unicode="&#xb1;" horiz-adv-x="1706" d="M254 -2v199h1198v-199h-1198zM254 698v199h498v326h202v-326h498v-199h-498v-325h-202v325h-498z" />
<glyph unicode="&#xb2;" horiz-adv-x="748" d="M49 569v181l56 45q399 324 399 422q0 42 -32 71t-81 29q-121 0 -127 -131h-178v10q0 113 81.5 178.5t221 65.5t222.5 -62t83 -163t-88 -206t-342 -294h436v-146h-651z" />
<glyph unicode="&#xb3;" horiz-adv-x="748" d="M56 1198q1 116 80.5 179t223.5 63t227 -67.5t83 -180.5q0 -150 -160 -188q81 -19 124.5 -68.5t43.5 -124.5q0 -113 -91.5 -184.5t-231.5 -71.5t-218 60.5t-78 164.5v17h179q0 -54 32.5 -84.5t90.5 -30.5t93 34t35 96t-39.5 89t-142.5 27h-69v141h71q100 0 140 27.5 t40 88.5t-34.5 95.5t-92 34.5t-91.5 -32t-36 -85h-179z" />
<glyph unicode="&#xb4;" horiz-adv-x="1024" d="M350 1157l197 369h258l-313 -369h-142z" />
<glyph unicode="&#xb5;" horiz-adv-x="1249" d="M-63 -438l268 1530h289l-76 -435q-31 -165 -31 -268q0 -184 170 -184q100 0 155.5 82t92.5 291l90 514h289l-193 -1092h-268l18 117q-81 -150 -213.5 -150t-214.5 121l-90 -526h-286z" />
<glyph unicode="&#xb6;" horiz-adv-x="1024" d="M41 1134q0 154 107 249.5t284 95.5h551v-111h-113v-1368h-151v1368h-158v-1368h-153v784q-167 6 -267 101t-100 249z" />
<glyph unicode="&#xb7;" horiz-adv-x="567" d="M131 723q0 63 43.5 107t106.5 44t107 -44t44 -107t-44 -107.5t-107 -44.5t-106.5 44.5t-43.5 107.5z" />
<glyph unicode="&#xb8;" horiz-adv-x="1024" d="M231 -309q166 -43 262.5 -43t96.5 73q0 38 -28 54t-79 16t-71 -2v211h100v-90h14q238 0 238 -191q0 -200 -266 -200q-105 0 -267 43v129z" />
<glyph unicode="&#xb9;" horiz-adv-x="748" d="M135 1126v172q133 49 234 127h182v-856h-201v664q-124 -78 -215 -107z" />
<glyph unicode="&#xba;" horiz-adv-x="926" d="M55 1114q0 174 111.5 278.5t296.5 104.5t296 -104.5t111 -278.5t-111.5 -279.5t-295.5 -105.5t-296 105.5t-112 279.5zM115 471v123h696v-123h-696zM301 1115.5q0 -230.5 162 -230.5t162 230.5t-162 230.5t-162 -230.5z" />
<glyph unicode="&#xbb;" horiz-adv-x="1241" d="M109 909h270l223 -387l-223 -403h-268l192 403zM639 909h270l224 -387l-224 -403h-268l193 403z" />
<glyph unicode="&#xbc;" horiz-adv-x="1769" d="M129 1147v160q131 48 223 118h174v-798h-192v618q-126 -76 -205 -98zM373 -25l868 1475h158l-869 -1475h-157zM1083 174v160l353 465h194v-494h113v-131h-113v-174h-180v174h-367zM1223 305h227v307z" />
<glyph unicode="&#xbd;" horiz-adv-x="1769" d="M129 1147v160q131 48 223 118h174v-798h-192v618q-126 -76 -205 -98zM373 -25l868 1475h158l-869 -1475h-157zM1104 0v168l52 42q380 302 380 394q0 40 -29.5 66t-81.5 26q-110 0 -116 -120l-170 -1v11q0 103 78 164t211 61t212.5 -57.5t79.5 -151.5t-84.5 -192.5 t-326.5 -274.5h415v-135h-620z" />
<glyph unicode="&#xbe;" horiz-adv-x="1769" d="M53 1212q0 108 76 167t214 59t217 -62t79 -168q0 -138 -152 -176q160 -36 160 -180q0 -105 -87.5 -172.5t-220.5 -67.5t-207.5 57t-74.5 154v17l168 -1q2 -50 33 -79t86.5 -29t89 32t33.5 89.5t-38 83t-136 25.5h-68v133h70q96 0 134 25t38 82t-33 88.5t-88.5 31.5 t-88 -29.5t-32.5 -79.5h-172zM371 -25l868 1475h158l-869 -1475h-157zM1081 174v160l353 465h194v-494h113v-131h-113v-174h-180v174h-367zM1221 305h227v307z" />
<glyph unicode="&#xbf;" horiz-adv-x="1014" d="M96 350q0 102 48 188q56 104 226 248q124 106 124 187v168h223v-211q0 -79 -72 -158q-19 -21 -29 -33q-136 -161 -173 -229t-37 -127q0 -94 63.5 -150.5t165 -56.5t285.5 51v-215q-181 -35 -312 -35q-244 0 -378 97.5t-134 275.5zM489 1225v250h238v-250h-238z" />
<glyph unicode="&#xc0;" horiz-adv-x="1436" d="M6 0l535 1475h372l514 -1475h-321l-105 317h-583l-115 -317h-297zM436 1972h258l197 -369h-142zM498 559h426l-203 625z" />
<glyph unicode="&#xc1;" horiz-adv-x="1436" d="M6 0l535 1475h372l514 -1475h-321l-105 317h-583l-115 -317h-297zM498 559h426l-203 625zM567 1603l197 369h258l-313 -369h-142z" />
<glyph unicode="&#xc2;" horiz-adv-x="1436" d="M6 0l535 1475h372l514 -1475h-321l-105 317h-583l-115 -317h-297zM414 1603l196 369h238l196 -369h-141l-174 217l-176 -217h-139zM498 559h426l-203 625z" />
<glyph unicode="&#xc3;" horiz-adv-x="1436" d="M6 0l535 1475h372l514 -1475h-321l-105 317h-583l-115 -317h-297zM412 1646q24 124 74 182t130 58q42 0 87 -15l92 -24q24 -8 55 -8q64 0 86 82h110q-51 -240 -208 -240q-40 0 -74 10l-89 27q-36 10 -65 10q-65 0 -88 -82h-110zM498 559h426l-203 625z" />
<glyph unicode="&#xc4;" horiz-adv-x="1436" d="M6 0l535 1475h372l514 -1475h-321l-105 317h-583l-115 -317h-297zM442 1663v243h226v-243h-226zM498 559h426l-203 625zM790 1663v243h226v-243h-226z" />
<glyph unicode="&#xc5;" horiz-adv-x="1436" d="M6 0l535 1475l98 -2v4q-80 23 -125 85.5t-45 161t75.5 173.5t182.5 75t182.5 -75.5t75.5 -174.5t-45.5 -161.5t-126.5 -83.5v-4l100 2l514 -1475h-321l-105 317h-583l-115 -317h-297zM498 559h426l-203 625zM610 1713q0 -50 33 -83t83 -33t84 34t34 82.5t-34.5 83 t-83 34.5t-82.5 -34t-34 -84z" />
<glyph unicode="&#xc6;" horiz-adv-x="1972" d="M-18 0l804 1475h1100v-242h-676l52 -361h581v-235h-551l51 -393h564v-244h-832l-41 322h-581l-162 -322h-309zM571 557h430l-92 684z" />
<glyph unicode="&#xc7;" horiz-adv-x="1427" d="M86 730.5q0 371.5 175 570t501 198.5q266 0 421.5 -119.5t166.5 -330.5h-291q-5 106 -82 169.5t-203 63.5q-371 0 -371 -545q0 -278 92 -412.5t281 -134.5q122 0 199.5 69t85.5 183h297q-16 -228 -170 -347.5t-432 -119.5q-330 0 -500 192t-170 563.5zM467 -309 q166 -43 262.5 -43t96.5 73q0 38 -28 54t-79 16t-71 -2v211h100v-90h14q238 0 238 -191q0 -200 -266 -200q-105 0 -267 43v129z" />
<glyph unicode="&#xc8;" horiz-adv-x="1229" d="M143 0v1475h979v-244h-659v-348h618v-240h-618v-397h682v-246h-1002zM334 1972h258l197 -369h-142z" />
<glyph unicode="&#xc9;" horiz-adv-x="1229" d="M143 0v1475h979v-244h-659v-348h618v-240h-618v-397h682v-246h-1002zM465 1603l197 369h258l-313 -369h-142z" />
<glyph unicode="&#xca;" horiz-adv-x="1229" d="M143 0v1475h979v-244h-659v-348h618v-240h-618v-397h682v-246h-1002zM312 1603l196 369h238l196 -369h-141l-174 217l-176 -217h-139z" />
<glyph unicode="&#xcb;" horiz-adv-x="1229" d="M143 0v1475h979v-244h-659v-348h618v-240h-618v-397h682v-246h-1002zM340 1663v243h226v-243h-226zM688 1663v243h226v-243h-226z" />
<glyph unicode="&#xcc;" horiz-adv-x="596" d="M6 1972h258l197 -369h-142zM141 0v1475h314v-1475h-314z" />
<glyph unicode="&#xcd;" horiz-adv-x="596" d="M137 1603l197 369h258l-313 -369h-142zM141 0v1475h314v-1475h-314z" />
<glyph unicode="&#xce;" horiz-adv-x="596" d="M-16 1603l196 369h238l196 -369h-141l-174 217l-176 -217h-139zM141 0v1475h314v-1475h-314z" />
<glyph unicode="&#xcf;" horiz-adv-x="596" d="M12 1663v243h226v-243h-226zM141 0v1475h314v-1475h-314zM360 1663v243h226v-243h-226z" />
<glyph unicode="&#xd0;" horiz-adv-x="1501" d="M0 678v180h160v617h461q185 0 297 -29t206 -94q277 -192 277 -617q0 -362 -197.5 -548.5t-582.5 -186.5h-461v678h-160zM473 244h160q227 0 333.5 118t106.5 374t-106 376.5t-334 120.5h-160v-375h291v-180h-291v-434z" />
<glyph unicode="&#xd1;" horiz-adv-x="1575" d="M141 0v1475h455l555 -1186v1186h283v-1475h-437l-573 1221v-1221h-283zM494 1646q24 124 74 182t130 58q42 0 87 -15l92 -24q24 -8 55 -8q64 0 86 82h110q-51 -240 -208 -240q-40 0 -74 10l-89 27q-36 10 -65 10q-65 0 -88 -82h-110z" />
<glyph unicode="&#xd2;" horiz-adv-x="1597" d="M94 738.5q0 355.5 189.5 557t515 201.5t514 -201.5t188.5 -556.5t-186 -559.5t-516.5 -204.5t-517.5 204t-187 559.5zM424 740q0 -266 95 -405.5t278.5 -139.5t278.5 139.5t95 406t-96 405t-277.5 138.5t-277.5 -139t-96 -405zM506 1972h258l197 -369h-142z" />
<glyph unicode="&#xd3;" horiz-adv-x="1597" d="M94 738.5q0 355.5 189.5 557t515 201.5t514 -201.5t188.5 -556.5t-186 -559.5t-516.5 -204.5t-517.5 204t-187 559.5zM424 740q0 -266 95 -405.5t278.5 -139.5t278.5 139.5t95 406t-96 405t-277.5 138.5t-277.5 -139t-96 -405zM637 1603l197 369h258l-313 -369h-142z" />
<glyph unicode="&#xd4;" horiz-adv-x="1597" d="M94 738.5q0 355.5 189.5 557t515 201.5t514 -201.5t188.5 -556.5t-186 -559.5t-516.5 -204.5t-517.5 204t-187 559.5zM424 740q0 -266 95 -405.5t278.5 -139.5t278.5 139.5t95 406t-96 405t-277.5 138.5t-277.5 -139t-96 -405zM484 1603l196 369h238l196 -369h-141 l-174 217l-176 -217h-139z" />
<glyph unicode="&#xd5;" horiz-adv-x="1597" d="M94 738.5q0 355.5 189.5 557t515 201.5t514 -201.5t188.5 -556.5t-186 -559.5t-516.5 -204.5t-517.5 204t-187 559.5zM424 740q0 -266 95 -405.5t278.5 -139.5t278.5 139.5t95 406t-96 405t-277.5 138.5t-277.5 -139t-96 -405zM482 1646q24 124 74 182t130 58 q42 0 87 -15l92 -24q24 -8 55 -8q64 0 86 82h110q-51 -240 -208 -240q-40 0 -74 10l-89 27q-36 10 -65 10q-65 0 -88 -82h-110z" />
<glyph unicode="&#xd6;" horiz-adv-x="1597" d="M94 738.5q0 355.5 189.5 557t515 201.5t514 -201.5t188.5 -556.5t-186 -559.5t-516.5 -204.5t-517.5 204t-187 559.5zM424 740q0 -266 95 -405.5t278.5 -139.5t278.5 139.5t95 406t-96 405t-277.5 138.5t-277.5 -139t-96 -405zM512 1663v243h226v-243h-226zM860 1663v243 h226v-243h-226z" />
<glyph unicode="&#xd7;" horiz-adv-x="1706" d="M276 160l451 450l-451 453l140 139l450 -450l451 450l141 -139l-450 -453l450 -450l-141 -140l-451 451l-450 -451z" />
<glyph unicode="&#xd8;" horiz-adv-x="1597" d="M49 -6l203 221q-158 212 -158 547.5t187 535t508 199.5t493 -170l186 209l99 -96l-193 -217q127 -183 127 -484q0 -355 -189 -559.5t-517 -204.5q-266 0 -445 142l-203 -219zM420 735q0 -154 41 -293l626 682q-98 162 -284 162t-284.5 -141.5t-98.5 -409.5zM528 311 q106 -118 279 -118t272 142t99 400q0 110 -33 246z" />
<glyph unicode="&#xd9;" horiz-adv-x="1542" d="M139 567v908h314v-930q0 -326 329 -326q165 0 242.5 82.5t77.5 257.5v916h303v-908q0 -298 -156.5 -444t-478 -146t-476.5 144.5t-155 445.5zM479 1972h258l197 -369h-142z" />
<glyph unicode="&#xda;" horiz-adv-x="1542" d="M139 567v908h314v-930q0 -326 329 -326q165 0 242.5 82.5t77.5 257.5v916h303v-908q0 -298 -156.5 -444t-478 -146t-476.5 144.5t-155 445.5zM610 1603l197 369h258l-313 -369h-142z" />
<glyph unicode="&#xdb;" horiz-adv-x="1542" d="M139 567v908h314v-930q0 -326 329 -326q165 0 242.5 82.5t77.5 257.5v916h303v-908q0 -298 -156.5 -444t-478 -146t-476.5 144.5t-155 445.5zM457 1603l196 369h238l196 -369h-141l-174 217l-176 -217h-139z" />
<glyph unicode="&#xdc;" horiz-adv-x="1542" d="M139 567v908h314v-930q0 -326 329 -326q165 0 242.5 82.5t77.5 257.5v916h303v-908q0 -298 -156.5 -444t-478 -146t-476.5 144.5t-155 445.5zM485 1663v243h226v-243h-226zM833 1663v243h226v-243h-226z" />
<glyph unicode="&#xdd;" horiz-adv-x="1350" d="M20 1475h332l338 -631l305 631h328l-489 -930v-545h-316v545zM514 1603l197 369h258l-313 -369h-142z" />
<glyph unicode="&#xde;" horiz-adv-x="1235" d="M141 0v1475h299v-261h138q314 0 455 -106t141 -337q0 -462 -515 -462h-219v-309h-299zM440 555h150q147 0 209.5 48.5t62.5 159t-62.5 158.5t-209.5 48h-150v-414z" />
<glyph unicode="&#xdf;" horiz-adv-x="1348" d="M133 0v1077q0 418 483 418q220 0 348 -82.5t128 -222.5q0 -106 -105 -186q-12 -10 -35 -28q-102 -77 -102 -124q0 -63 161 -153q28 -16 43 -25q140 -78 182 -145.5t42 -180.5q0 -190 -102.5 -283.5t-292 -93.5t-270.5 80.5t-81 247.5h259q0 -61 27 -94t77 -33 q100 0 100 145q0 122 -143 201l-21 12q-266 152 -266 285q0 56 21.5 99t103.5 120q109 93 109 151.5t-45.5 92t-132.5 33.5t-143 -69.5t-56 -188.5v-1053h-289z" />
<glyph unicode="&#xe0;" horiz-adv-x="1128" d="M88 293q0 180 141.5 274.5t413.5 94.5l68 -3l2 43q0 95 -34.5 139t-105.5 44t-105 -35t-40 -111l-297 1q4 315 438 315q223 0 334 -109q51 -49 71.5 -112.5t20.5 -206.5v-314q0 -47 16 -313h-257q-9 36 -13 139q-130 -172 -325 -172q-145 0 -236.5 91t-91.5 235z M272 1526h258l197 -369h-142zM379 311q0 -59 40.5 -97t117 -38t125.5 67.5t49 194.5q0 33 -2 55l-33 1q-144 0 -220.5 -47.5t-76.5 -135.5z" />
<glyph unicode="&#xe1;" horiz-adv-x="1128" d="M88 293q0 180 141.5 274.5t413.5 94.5l68 -3l2 43q0 95 -34.5 139t-105.5 44t-105 -35t-40 -111l-297 1q4 315 438 315q223 0 334 -109q51 -49 71.5 -112.5t20.5 -206.5v-314q0 -47 16 -313h-257q-9 36 -13 139q-130 -172 -325 -172q-145 0 -236.5 91t-91.5 235zM379 311 q0 -59 40.5 -97t117 -38t125.5 67.5t49 194.5q0 33 -2 55l-33 1q-144 0 -220.5 -47.5t-76.5 -135.5zM403 1157l197 369h258l-313 -369h-142z" />
<glyph unicode="&#xe2;" horiz-adv-x="1128" d="M88 293q0 180 141.5 274.5t413.5 94.5l68 -3l2 43q0 95 -34.5 139t-105.5 44t-105 -35t-40 -111l-297 1q4 315 438 315q223 0 334 -109q51 -49 71.5 -112.5t20.5 -206.5v-314q0 -47 16 -313h-257q-9 36 -13 139q-130 -172 -325 -172q-145 0 -236.5 91t-91.5 235z M250 1157l196 369h238l196 -369h-141l-174 217l-176 -217h-139zM379 311q0 -59 40.5 -97t117 -38t125.5 67.5t49 194.5q0 33 -2 55l-33 1q-144 0 -220.5 -47.5t-76.5 -135.5z" />
<glyph unicode="&#xe3;" horiz-adv-x="1128" d="M88 293q0 180 141.5 274.5t413.5 94.5l68 -3l2 43q0 95 -34.5 139t-105.5 44t-105 -35t-40 -111l-297 1q4 315 438 315q223 0 334 -109q51 -49 71.5 -112.5t20.5 -206.5v-314q0 -47 16 -313h-257q-9 36 -13 139q-130 -172 -325 -172q-145 0 -236.5 91t-91.5 235z M248 1200q24 124 74 182t130 58q42 0 87 -15l92 -24q24 -8 55 -8q64 0 86 82h110q-51 -240 -208 -240q-40 0 -74 10l-89 27q-36 10 -65 10q-65 0 -88 -82h-110zM379 311q0 -59 40.5 -97t117 -38t125.5 67.5t49 194.5q0 33 -2 55l-33 1q-144 0 -220.5 -47.5t-76.5 -135.5z " />
<glyph unicode="&#xe4;" horiz-adv-x="1128" d="M88 293q0 180 141.5 274.5t413.5 94.5l68 -3l2 43q0 95 -34.5 139t-105.5 44t-105 -35t-40 -111l-297 1q4 315 438 315q223 0 334 -109q51 -49 71.5 -112.5t20.5 -206.5v-314q0 -47 16 -313h-257q-9 36 -13 139q-130 -172 -325 -172q-145 0 -236.5 91t-91.5 235z M278 1217v243h226v-243h-226zM379 311q0 -59 40.5 -97t117 -38t125.5 67.5t49 194.5q0 33 -2 55l-33 1q-144 0 -220.5 -47.5t-76.5 -135.5zM626 1217v243h226v-243h-226z" />
<glyph unicode="&#xe5;" horiz-adv-x="1128" d="M88 293q0 180 141.5 274.5t413.5 94.5l68 -3l2 43q0 95 -34.5 139t-105.5 44t-105 -35t-40 -111l-297 1q4 315 438 315q223 0 334 -109q51 -49 71.5 -112.5t20.5 -206.5v-314q0 -47 16 -313h-257q-9 36 -13 139q-130 -172 -325 -172q-145 0 -236.5 91t-91.5 235z M322 1379.5q0 108.5 74 182.5t181.5 74t183 -74.5t75.5 -181.5t-75.5 -182.5t-183.5 -75.5t-181.5 74.5t-73.5 183zM379 311q0 -59 40.5 -97t117 -38t125.5 67.5t49 194.5q0 33 -2 55l-33 1q-144 0 -220.5 -47.5t-76.5 -135.5zM461 1380.5q0 -49.5 34 -84t83 -34.5 t83.5 34.5t34.5 83t-35.5 83t-84 34.5t-82 -33.5t-33.5 -83z" />
<glyph unicode="&#xe6;" horiz-adv-x="1718" d="M82 272q0 369 559 369l63 -2q3 17 3 57q0 99 -34.5 144t-105.5 45t-105 -35t-40 -111l-297 1q2 155 109.5 235t326.5 80t313 -121q115 121 322 121t328 -139t121 -390l-3 -53h-663v-10q0 -287 190 -287q145 0 179 146h266q-17 -165 -132 -255t-308 -90q-232 0 -377 166 q-174 -176 -387 -176q-144 0 -236 86t-92 219zM371 293q0 -59 41 -97t118 -38t126 67t49 193q0 38 -3 55h-34q-144 0 -220.5 -46.5t-76.5 -133.5zM989 641h352q-2 223 -176 223q-77 0 -123.5 -59t-52.5 -164z" />
<glyph unicode="&#xe7;" horiz-adv-x="1020" d="M80 522.5q0 250.5 128 390.5t353 140q182 0 289 -100.5t110 -274.5h-282q-10 98 -42.5 141t-96.5 43q-150 0 -150 -327q0 -188 36.5 -268.5t119.5 -80.5q123 0 133 203h283q0 -196 -110.5 -305t-316.5 -109t-330 148.5t-124 399zM247 -309q166 -43 262.5 -43t96.5 73 q0 38 -28 54t-79 16t-71 -2v211h100v-90h14q238 0 238 -191q0 -200 -266 -200q-105 0 -267 43v129z" />
<glyph unicode="&#xe8;" horiz-adv-x="1120" d="M86 510.5q0 255.5 129 399t356.5 143.5t347 -139.5t119.5 -395.5q0 -45 -2 -67l-663 -1q4 -274 190 -274q144 0 178 146h265q-13 -163 -129.5 -254t-327.5 -91t-337 139t-126 394.5zM268 1526h258l197 -369h-142zM381 641h352q-4 223 -174 223q-77 0 -124.5 -59 t-53.5 -164z" />
<glyph unicode="&#xe9;" horiz-adv-x="1120" d="M86 510.5q0 255.5 129 399t356.5 143.5t347 -139.5t119.5 -395.5q0 -45 -2 -67l-663 -1q4 -274 190 -274q144 0 178 146h265q-13 -163 -129.5 -254t-327.5 -91t-337 139t-126 394.5zM381 641h352q-4 223 -174 223q-77 0 -124.5 -59t-53.5 -164zM399 1157l197 369h258 l-313 -369h-142z" />
<glyph unicode="&#xea;" horiz-adv-x="1120" d="M86 510.5q0 255.5 129 399t356.5 143.5t347 -139.5t119.5 -395.5q0 -45 -2 -67l-663 -1q4 -274 190 -274q144 0 178 146h265q-13 -163 -129.5 -254t-327.5 -91t-337 139t-126 394.5zM246 1157l196 369h238l196 -369h-141l-174 217l-176 -217h-139zM381 641h352 q-4 223 -174 223q-77 0 -124.5 -59t-53.5 -164z" />
<glyph unicode="&#xeb;" horiz-adv-x="1120" d="M86 510.5q0 255.5 129 399t356.5 143.5t347 -139.5t119.5 -395.5q0 -45 -2 -67l-663 -1q4 -274 190 -274q144 0 178 146h265q-13 -163 -129.5 -254t-327.5 -91t-337 139t-126 394.5zM274 1217v243h226v-243h-226zM381 641h352q-4 223 -174 223q-77 0 -124.5 -59 t-53.5 -164zM622 1217v243h226v-243h-226z" />
<glyph unicode="&#xec;" horiz-adv-x="567" d="M-8 1526h258l197 -369h-142zM135 0v1028h299v-1028h-299z" />
<glyph unicode="&#xed;" horiz-adv-x="567" d="M123 1157l197 369h258l-313 -369h-142zM135 0v1028h299v-1028h-299z" />
<glyph unicode="&#xee;" horiz-adv-x="567" d="M-30 1157l196 369h238l196 -369h-141l-174 217l-176 -217h-139zM135 0v1028h299v-1028h-299z" />
<glyph unicode="&#xef;" horiz-adv-x="567" d="M-2 1217v243h226v-243h-226zM135 0v1028h299v-1028h-299zM346 1217v243h226v-243h-226z" />
<glyph unicode="&#xf0;" horiz-adv-x="1235" d="M86 451q0 213 135 347t342 134q121 0 230 -70q-72 127 -220 250l-294 -121l-50 107l246 104q-92 58 -180 113l133 160q138 -69 297 -175l289 121l51 -108l-236 -101q322 -292 322 -714q0 -249 -140.5 -386t-387 -137t-392 131.5t-145.5 344.5zM389 464q0 -290 227.5 -290 t227.5 290t-227.5 290t-227.5 -290z" />
<glyph unicode="&#xf1;" horiz-adv-x="1221" d="M129 1028h285l6 -154q58 93 137.5 136t194.5 43q170 0 252.5 -96.5t82.5 -294.5v-662h-294v621q0 115 -39.5 165t-127 50t-140 -55.5t-52.5 -147.5v-633h-295v831q0 83 -10 197zM293 1200q24 124 74 182t130 58q42 0 87 -15l92 -24q24 -8 55 -8q64 0 86 82h110 q-51 -240 -208 -240q-40 0 -74 10l-89 27q-36 10 -65 10q-65 0 -88 -82h-110z" />
<glyph unicode="&#xf2;" horiz-adv-x="1235" d="M86 514q0 244 145 391.5t386 147.5t386.5 -147t145.5 -392t-145.5 -392t-386.5 -147t-386 147.5t-145 391.5zM325 1526h258l197 -369h-142zM389 516.5q0 -167.5 58 -254t169.5 -86.5t169.5 86.5t58 253.5q0 340 -228 340q-111 0 -169 -86t-58 -253.5z" />
<glyph unicode="&#xf3;" horiz-adv-x="1235" d="M86 514q0 244 145 391.5t386 147.5t386.5 -147t145.5 -392t-145.5 -392t-386.5 -147t-386 147.5t-145 391.5zM389 516.5q0 -167.5 58 -254t169.5 -86.5t169.5 86.5t58 253.5q0 340 -228 340q-111 0 -169 -86t-58 -253.5zM456 1157l197 369h258l-313 -369h-142z" />
<glyph unicode="&#xf4;" horiz-adv-x="1235" d="M86 514q0 244 145 391.5t386 147.5t386.5 -147t145.5 -392t-145.5 -392t-386.5 -147t-386 147.5t-145 391.5zM303 1157l196 369h238l196 -369h-141l-174 217l-176 -217h-139zM389 516.5q0 -167.5 58 -254t169.5 -86.5t169.5 86.5t58 253.5q0 340 -228 340 q-111 0 -169 -86t-58 -253.5z" />
<glyph unicode="&#xf5;" horiz-adv-x="1235" d="M86 514q0 244 145 391.5t386 147.5t386.5 -147t145.5 -392t-145.5 -392t-386.5 -147t-386 147.5t-145 391.5zM301 1200q24 124 74 182t130 58q42 0 87 -15l92 -24q24 -8 55 -8q64 0 86 82h110q-51 -240 -208 -240q-40 0 -74 10l-89 27q-36 10 -65 10q-65 0 -88 -82h-110z M389 516.5q0 -167.5 58 -254t169.5 -86.5t169.5 86.5t58 253.5q0 340 -228 340q-111 0 -169 -86t-58 -253.5z" />
<glyph unicode="&#xf6;" horiz-adv-x="1235" d="M86 514q0 244 145 391.5t386 147.5t386.5 -147t145.5 -392t-145.5 -392t-386.5 -147t-386 147.5t-145 391.5zM331 1217v243h226v-243h-226zM389 516.5q0 -167.5 58 -254t169.5 -86.5t169.5 86.5t58 253.5q0 340 -228 340q-111 0 -169 -86t-58 -253.5zM679 1217v243h226 v-243h-226z" />
<glyph unicode="&#xf7;" horiz-adv-x="1706" d="M254 512v199h1198v-199h-1198zM702 217q0 63 44.5 107.5t107 44.5t107.5 -45t45 -106.5t-45 -105.5t-107.5 -44t-107 43t-44.5 106zM702 1004q0 63 44.5 107t107 44t107.5 -44.5t45 -107t-44.5 -107t-107.5 -44.5t-107.5 44.5t-44.5 107.5z" />
<glyph unicode="&#xf8;" horiz-adv-x="1235" d="M23 4l165 172q-102 120 -102 351t145 378.5t387 147.5q181 0 326 -99l158 164l78 -82l-152 -159q121 -141 121 -374t-145 -379.5t-370 -146.5t-368 117l-166 -172zM389 535q0 -41 11 -145l378 390q-68 76 -169 76t-160.5 -84t-59.5 -237zM438 276q68 -98 182 -98 q226 0 226 352q0 92 -17 152z" />
<glyph unicode="&#xf9;" horiz-adv-x="1221" d="M135 367v661h297v-618q0 -116 39.5 -165.5t127 -49.5t138.5 54t51 146v633h297v-829q0 -98 9 -199h-283l-8 154q-58 -93 -137.5 -136t-194.5 -43q-171 0 -253.5 96.5t-82.5 295.5zM317 1526h258l197 -369h-142z" />
<glyph unicode="&#xfa;" horiz-adv-x="1221" d="M135 367v661h297v-618q0 -116 39.5 -165.5t127 -49.5t138.5 54t51 146v633h297v-829q0 -98 9 -199h-283l-8 154q-58 -93 -137.5 -136t-194.5 -43q-171 0 -253.5 96.5t-82.5 295.5zM448 1157l197 369h258l-313 -369h-142z" />
<glyph unicode="&#xfb;" horiz-adv-x="1221" d="M135 367v661h297v-618q0 -116 39.5 -165.5t127 -49.5t138.5 54t51 146v633h297v-829q0 -98 9 -199h-283l-8 154q-58 -93 -137.5 -136t-194.5 -43q-171 0 -253.5 96.5t-82.5 295.5zM295 1157l196 369h238l196 -369h-141l-174 217l-176 -217h-139z" />
<glyph unicode="&#xfc;" horiz-adv-x="1221" d="M135 367v661h297v-618q0 -116 39.5 -165.5t127 -49.5t138.5 54t51 146v633h297v-829q0 -98 9 -199h-283l-8 154q-58 -93 -137.5 -136t-194.5 -43q-171 0 -253.5 96.5t-82.5 295.5zM323 1217v243h226v-243h-226zM671 1217v243h226v-243h-226z" />
<glyph unicode="&#xfd;" horiz-adv-x="1126" d="M23 1028h329l223 -672l226 672h299l-393 -1028l-119 -389h-303l127 389zM401 1157l197 369h258l-313 -369h-142z" />
<glyph unicode="&#xfe;" horiz-adv-x="1245" d="M135 -389v1864h297v-594q103 168 297.5 168t311 -147t116.5 -388.5t-114 -386.5t-308.5 -145t-302.5 159v-530h-297zM426 516.5q0 -154.5 59.5 -245.5t159 -91t154.5 88.5t55 248t-55 247.5t-154.5 88t-159 -90.5t-59.5 -245z" />
<glyph unicode="&#xff;" horiz-adv-x="1126" d="M23 1028h329l223 -672l226 672h299l-393 -1028l-119 -389h-303l127 389zM276 1217v243h226v-243h-226zM624 1217v243h226v-243h-226z" />
<glyph unicode="&#x152;" horiz-adv-x="2077" d="M100 739q0 354 197 550t559 196l352 -10h752v-242h-666v-361h619v-235h-619v-393h684v-244h-768l-368 -10q-349 0 -545.5 197.5t-196.5 551.5zM428 741.5q0 -520.5 428 -520.5q30 0 141 12l21 3v1011q-103 15 -162 15q-428 0 -428 -520.5z" />
<glyph unicode="&#x153;" horiz-adv-x="1862" d="M86 514q0 245 142 392t378 147q114 0 198 -34t163 -112q148 146 360 146t331.5 -139.5t119.5 -395.5q0 -43 -2 -67l-664 -1q4 -274 191 -274q144 0 178 146h266q-17 -165 -133 -256t-309 -91q-110 0 -190 33t-150 107q-146 -140 -370.5 -140t-366.5 147t-142 392z M371 516.5q0 -166.5 58.5 -253.5t170.5 -87q227 0 227 340t-227 340q-112 0 -170.5 -86.5t-58.5 -253zM1120 641h352q-2 223 -174 223q-77 0 -124.5 -59t-53.5 -164z" />
<glyph unicode="&#x178;" horiz-adv-x="1350" d="M20 1475h332l338 -631l305 631h328l-489 -930v-545h-316v545zM389 1663v243h226v-243h-226zM737 1663v243h226v-243h-226z" />
<glyph unicode="&#x2c6;" horiz-adv-x="1024" d="M197 1157l196 369h238l196 -369h-141l-174 217l-176 -217h-139z" />
<glyph unicode="&#x2dc;" horiz-adv-x="1024" d="M195 1200q24 124 74 182t130 58q42 0 87 -15l92 -24q24 -8 55 -8q64 0 86 82h110q-51 -240 -208 -240q-40 0 -74 10l-89 27q-36 10 -65 10q-65 0 -88 -82h-110z" />
<glyph unicode="&#x2000;" horiz-adv-x="986" />
<glyph unicode="&#x2001;" horiz-adv-x="1972" />
<glyph unicode="&#x2002;" horiz-adv-x="986" />
<glyph unicode="&#x2003;" horiz-adv-x="1972" />
<glyph unicode="&#x2004;" horiz-adv-x="657" />
<glyph unicode="&#x2005;" horiz-adv-x="493" />
<glyph unicode="&#x2006;" horiz-adv-x="328" />
<glyph unicode="&#x2007;" horiz-adv-x="328" />
<glyph unicode="&#x2008;" horiz-adv-x="246" />
<glyph unicode="&#x2009;" horiz-adv-x="394" />
<glyph unicode="&#x200a;" horiz-adv-x="109" />
<glyph unicode="&#x2010;" horiz-adv-x="713" d="M92 391v271h529v-271h-529z" />
<glyph unicode="&#x2011;" horiz-adv-x="713" d="M92 391v271h529v-271h-529z" />
<glyph unicode="&#x2012;" horiz-adv-x="713" d="M92 391v271h529v-271h-529z" />
<glyph unicode="&#x2013;" horiz-adv-x="1024" d="M0 412v227h1024v-227h-1024z" />
<glyph unicode="&#x2014;" horiz-adv-x="2048" d="M0 412v227h2048v-227h-2048z" />
<glyph unicode="&#x2018;" horiz-adv-x="551" d="M57 967l224 508h213l-148 -508h-289z" />
<glyph unicode="&#x2019;" horiz-adv-x="551" d="M57 967l146 508h291l-226 -508h-211z" />
<glyph unicode="&#x201a;" horiz-adv-x="551" d="M57 -231l146 507h291l-226 -507h-211z" />
<glyph unicode="&#x201c;" horiz-adv-x="952" d="M55 967l226 508h213l-148 -508h-291zM459 967l223 508h213l-145 -508h-291z" />
<glyph unicode="&#x201d;" horiz-adv-x="952" d="M57 967l146 508h291l-226 -508h-211zM459 967l145 508h291l-225 -508h-211z" />
<glyph unicode="&#x201e;" horiz-adv-x="952" d="M55 -231l148 507h291l-226 -507h-213zM459 -231l145 507h291l-225 -507h-211z" />
<glyph unicode="&#x2022;" horiz-adv-x="1208" d="M307 762q0 123 87 209t209.5 86t209 -86.5t86.5 -208.5t-87.5 -209.5t-210 -87.5t-208.5 87t-86 210z" />
<glyph unicode="&#x2026;" horiz-adv-x="2048" d="M211 0v270h258v-270h-258zM893 0v270h258v-270h-258zM1577 0v270h258v-270h-258z" />
<glyph unicode="&#x202f;" horiz-adv-x="394" />
<glyph unicode="&#x2039;" horiz-adv-x="711" d="M109 522l223 387h270l-194 -387l192 -403h-268z" />
<glyph unicode="&#x203a;" horiz-adv-x="711" d="M109 909h270l223 -387l-223 -403h-268l192 403z" />
<glyph unicode="&#x205f;" horiz-adv-x="493" />
<glyph unicode="&#x20ac;" d="M-51 813l61 141h129q26 267 156 406t340 139t332 -116t130 -310h-296q0 101 -41.5 156t-125.5 55q-173 0 -191 -330h366l-64 -141h-311v-20l-2 -58l2 -59v-14h244l-64 -142h-171q6 -332 192 -332q81 0 124.5 64t43.5 182v8h301q-10 -224 -128.5 -345.5t-328.5 -121.5 q-450 0 -508 545h-164l64 142h90v151h-180z" />
<glyph unicode="&#x2122;" horiz-adv-x="1706" d="M207 1350v112h485v-112h-168v-435h-149v435h-168zM803 915v547h196l127 -332l123 332h197v-547h-135v410l-154 -410h-61l-158 410v-410h-135z" />
<glyph unicode="&#xe000;" horiz-adv-x="1030" d="M0 0v1030h1030v-1030h-1030z" />
</font>
</defs>
</svg>
